{"title":"Nena.Made.In.Germany.Live.In.Concert.720p.HDTV.x264-Liebe_Ist","uid":11715371,"size":1388546610,"categoryP":"video","categoryS":"music_videos","magnet":"?xt=urn:btih:7d457689ef5236dfc68b538c4b2b497945885cf0&amp;dn=Nena.Made.In.Germany.Live.In.Concert.720p.HDTV.x264-Liebe_Ist&amp;tr=udp%3A%2F%2Ftracker.openbittorrent.com%3A80&amp;tr=udp%3A%2F%2Fopen.demonii.com%3A1337&amp;tr=udp%3A%2F%2Ftracker.coppersurfer.tk%3A6969&amp;tr=udp%3A%2F%2Fexodus.desync.com%3A6969","seeders":1,"leechers":0,"uploader":"Liebe_Ist","files":1,"time":1424547988,"description":"General\nFormat                         : Matroska\nFormat version                 : Version 2\nFile size                      : 1.29 GiB\nDuration                       : 59mn 52s\nOverall bit rate               : 3 092 Kbps\nWriting application            : HandBrake 0.9.9\nWriting library                : libmkv 0.6.5\n\nVideo\nID                             : 1\nFormat                         : AVC\nFormat/Info                    : Advanced Video Codec\nFormat profile                 : &lt;a class=&quot;__cf_email__&quot; href=&quot;/cdn-cgi/l/email-protection&quot; data-cfemail=&quot;a5edccc2cde5e9908b95&quot;&gt;[email&amp;#160;protected]&lt;/a&gt;&lt;script cf-hash='f9e31' type=&quot;text/javascript&quot;&gt;\n/* &lt;![CDATA[ */!function(){try{var t=&quot;currentScript&quot;in document?document.currentScript:function(){for(var t=document.getElementsByTagName(&quot;script&quot;),e=t.length;e--;)if(t[e].getAttribute(&quot;cf-hash&quot;))return t[e]}();if(t&amp;&amp;t.previousSibling){var e,r,n,i,c=t.previousSibling,a=c.getAttribute(&quot;data-cfemail&quot;);if(a){for(e=&quot;&quot;,r=parseInt(a.substr(0,2),16),n=2;a.length-n;n+=2)i=parseInt(a.substr(n,2),16)^r,e+=String.fromCharCode(i);e=document.createTextNode(e),c.parentNode.replaceChild(e,c)}}}catch(u){}}();/* ]]&gt; */&lt;/script&gt;\nFormat settings, CABAC         : Yes\nFormat settings, ReFrames      : 16 frames\nCodec ID                       : V_MPEG4/ISO/AVC\nDuration                       : 59mn 52s\nBit rate                       : 2 838 Kbps\nWidth                          : 1 280 pixels\nHeight                         : 720 pixels\nDisplay aspect ratio           : 16:9\nFrame rate mode                : Constant\nFrame rate                     : 25.000 fps\nColor space                    : YUV\nChroma subsampling             : 4:2:0\nBit depth                      : 8 bits\nScan type                      : Progressive\nBits/(Pixel*Frame)             : 0.123\nStream size                    : 1.19 GiB (92%)\nLanguage                       : English\nDefault                        : Yes\nForced                         : No\nColor primaries                : BT.709\nTransfer characteristics       : BT.709\nMatrix coefficients            : BT.709\n\nAudio\nID                             : 2\nFormat                         : AC-3\nFormat/Info                    : Audio Coding 3\nMode extension                 : CM (complete main)\nFormat settings, Endianness    : Big\nCodec ID                       : A_AC3\nDuration                       : 59mn 52s\nBit rate mode                  : Constant\nBit rate                       : 192 Kbps\nChannel count                  : 2 channels\nChannel positions              : Front: L R\nSampling rate                  : 48.0 KHz\nBit depth                      : 16 bits\nCompression mode               : Lossy\nStream size                    : 82.2 MiB (6%)\nLanguage                       : German\nDefault                        : Yes\nForced                         : No","torrent":{"xt":"urn:btih:7d457689ef5236dfc68b538c4b2b497945885cf0","amp;dn":"Nena.Made.In.Germany.Live.In.Concert.720p.HDTV.x264-Liebe_Ist","amp;tr":["udp%3A%2F%2Ftracker.openbittorrent.com%3A80","udp%3A%2F%2Fopen.demonii.com%3A1337","udp%3A%2F%2Ftracker.coppersurfer.tk%3A6969","udp%3A%2F%2Fexodus.desync.com%3A6969"],"infoHash":"7d457689ef5236dfc68b538c4b2b497945885cf0","infoHashBuffer":{"type":"Buffer","data":[125,69,118,137,239,82,54,223,198,139,83,140,75,43,73,121,69,136,92,240]},"announce":[],"urlList":[]}}